<svg t="1657853301902" class="icon" viewBox="0 0 1024 1024" version="1.1" xmlns="http://www.w3.org/2000/svg" p-id="2444" width="200" height="200"><path d="M512 0c283.794286 0 512 228.205714 512 512s-228.205714 512-512 512-512-228.205714-512-512 228.205714-512 512-512z m14.628571 204.8h-29.257142a36.571429 36.571429 0 0 0-36.571429 36.571429v219.428571h-219.428571a36.571429 36.571429 0 0 0-36.571429 36.571429v29.257142a36.571429 36.571429 0 0 0 36.571429 36.571429h219.428571v219.428571a36.571429 36.571429 0 0 0 36.571429 36.571429h29.257142a36.571429 36.571429 0 0 0 36.571429-36.571429v-219.428571h219.428571a36.571429 36.571429 0 0 0 36.571429-36.571429v-29.257142a36.571429 36.571429 0 0 0-36.571429-36.571429h-219.428571v-219.428571a36.571429 36.571429 0 0 0-36.571429-36.571429z" fill="#0087FF" p-id="2445"></path></svg>
