<svg t="1658196300889" class="icon" viewBox="0 0 1024 1024" version="1.1" xmlns="http://www.w3.org/2000/svg" p-id="12571" width="200" height="200"><path d="M928 512c0-229.76-186.24-416-416-416S96 282.24 96 512s186.24 416 416 416 416-186.24 416-416z m-64 0c0 194.4-157.6 352-352 352S160 706.4 160 512 317.6 160 512 160s352 157.6 352 352z m-176.064-42.208l-2.656-3.008-136.96-137.344-4.064-3.744a64 64 0 0 0-82.368-0.128l-4.096 3.744-137.76 137.408-2.656 3.008a32 32 0 0 0 44.8 44.96l3.04-2.656 98.784-98.464V704l0.224 3.744a32 32 0 0 0 63.552 0L528 704v-304.288L640 511.968l3.008 2.656a32 32 0 0 0 47.168-41.6l-2.208-3.2z" p-id="12572" fill="#5EADFF"></path></svg>
