<svg t="1658135238521" class="icon" viewBox="0 0 1024 1024" version="1.1" xmlns="http://www.w3.org/2000/svg" p-id="8055" width="200" height="200"><path d="M604.544 736.192l288.768-282.688-287.744-270.976-271.04 283.2 270.016 270.464z m-72.704 71.232L264.32 539.456l-118.4 121.536 164.736 164.736a51.09 51.09 0 0 0 36.096 14.72h107.776c26.624 0 52.16-10.368 71.168-28.992l6.144-4.032z m109.312 35.072H895.36a50.816 50.816 0 0 1 0 101.696H346.24a152.512 152.512 0 0 1-107.776-44.8L73.728 734.72a101.696 101.696 0 0 1 0-142.4l457.6-480.448a101.696 101.696 0 0 1 143.36-3.584l287.296 271.04a101.696 101.696 0 0 1 4.032 143.872l-3.008 3.008-321.92 316.288z" p-id="8056" fill="#E6A23C"></path></svg>
