<svg t="1657853348040" class="icon" viewBox="0 0 1025 1024" version="1.1" xmlns="http://www.w3.org/2000/svg" p-id="2579" width="200" height="200"><path d="M873.666733 150.334596a510.204457 510.204457 0 0 1 0 723.331538 510.204457 510.204457 0 0 1-723.331537 0 510.204457 510.204457 0 0 1 0-723.331538 510.204457 510.204457 0 0 1 723.331537 0z m-131.149506 158.256173l-27.033603-27.106666a32.001941 32.001941 0 0 0-40.842659-3.726254l-4.383828 3.65319L512.000965 439.667212 353.744792 281.484103a32.001941 32.001941 0 0 0-40.769596-3.726254l-4.383827 3.65319-27.106667 27.17973a32.001941 32.001941 0 0 0-3.726253 40.769596l3.653189 4.383828L439.667811 512.000365 281.484702 670.256538a32.001941 32.001941 0 0 0-3.726253 40.769596l3.653189 4.383827 27.179731 27.106667a32.001941 32.001941 0 0 0 40.769595 3.726253l4.383828-3.653189L512.000965 584.333519l158.256172 158.183109a32.001941 32.001941 0 0 0 40.769596 3.726253l4.383828-3.653189 27.106666-27.179731a32.001941 32.001941 0 0 0 3.726254-40.769595l-3.65319-4.383828L584.334118 512.000365l158.183109-158.256172a32.001941 32.001941 0 0 0 3.726254-40.769596l-3.65319-4.383828z" fill="#FF393C" p-id="2580"></path></svg>
