<svg t="1658210468890" class="icon" viewBox="0 0 1024 1024" version="1.1" xmlns="http://www.w3.org/2000/svg" p-id="12939" width="200" height="200"><path d="M109.44 112.256a48 48 0 0 1 64.032-6.304l3.808 3.136L541.024 440.32l4.096 3.968a80 80 0 0 1 1.184 109.024l-2.496 2.624-2.624 2.528-363.84 333.12-3.744 3.136a48 48 0 0 1-64.512-70.464l3.456-3.488 350.88-321.28L112.64 180.032l-3.456-3.52a48 48 0 0 1 0.288-64.32z m346.368 0a48 48 0 0 1 64-6.304l3.84 3.136L887.36 440.32l4.096 3.968a80 80 0 0 1 1.184 109.024l-2.496 2.624-2.624 2.528-363.808 333.12-3.776 3.136a48 48 0 0 1-64.48-70.464l3.424-3.488 350.88-321.28-350.784-319.456-3.456-3.52a48 48 0 0 1 0.32-64.32z" p-id="12940" fill="#5EADFF"></path></svg>
