<svg t="1658135598835" class="icon" viewBox="0 0 1024 1024" version="1.1" xmlns="http://www.w3.org/2000/svg" p-id="11986" width="200" height="200"><path d="M881.216 880a32 32 0 0 1 3.744 63.776l-3.744 0.224H128a32 32 0 0 1-3.744-63.776L128 880h753.216zM197.248 676.544l135.776 135.776-137.152 1.376 1.376-137.152zM627.2 246.624l135.744 135.776-407.296 407.296-135.744-135.776L627.2 246.624z m135.744-90.496l90.528 90.496a32 32 0 0 1 0 45.248l-67.904 67.904L649.824 224l67.84-67.872a32 32 0 0 1 45.28 0z" p-id="11987" fill="#5EADFF"></path></svg>
