<svg t="1659334407707" class="icon" viewBox="0 0 1024 1024" version="1.1" xmlns="http://www.w3.org/2000/svg" p-id="4359" width="200" height="200"><path d="M216.64 960C167.68 960 128 919.872 128 870.4V153.6C128 104.128 167.68 64 216.64 64h531.68c7.456 0 14.624 2.88 20.096 8l118.144 110.912A30.016 30.016 0 0 1 896 204.8v665.6c0 49.472-39.68 89.6-88.64 89.6z m29.504-836.288h-29.536a29.696 29.696 0 0 0-29.536 29.888v716.8c0 16.48 13.216 29.856 29.536 29.856h29.536v-238.912a29.76 29.76 0 0 1 26.112-29.664l3.424-0.224h472.64c16.32 0 29.536 13.376 29.536 29.888l-0.032 238.912h29.568c15.136 0 27.616-11.52 29.344-26.368l0.192-3.488V217.856l-100.192-94.112-106.592-0.032v149.344a29.76 29.76 0 0 1-26.08 29.664l-3.456 0.224H275.68a29.696 29.696 0 0 1-29.536-29.888V123.712zM718.752 691.2H305.216v209.056H718.72V691.2zM571.04 123.744H305.216V243.2h265.824V123.744z" p-id="4360"></path></svg>
