<svg t="1658110872724" class="icon" viewBox="0 0 1024 1024" version="1.1" xmlns="http://www.w3.org/2000/svg" p-id="12009" width="200" height="200"><path d="M832 64a64 64 0 0 1 63.84 59.2L896 128v563.296a32 32 0 0 1-63.776 3.712L832 691.296V128H192v768h445.536a32 32 0 0 1 3.744 63.776l-3.744 0.224H192a64 64 0 0 1-63.84-59.2L128 896V128a64 64 0 0 1 59.2-63.84L192 64h640z m-256 352a224 224 0 0 1 185.216 350.016l125.376 125.12a32 32 0 0 1-42.176 47.936l-3.008-2.656-123.424-123.136A224 224 0 1 1 576 416z m0 64a160 160 0 1 0 0 320 160 160 0 0 0 0-320z m164.288-224.256a32 32 0 0 1 3.712 63.808l-3.712 0.192H295.104A32 32 0 0 1 291.36 256l3.744-0.224h445.184z" p-id="12010" fill="#1afa29"></path></svg>
