<svg t="1657596721519" class="icon" viewBox="0 0 1024 1024" version="1.1" xmlns="http://www.w3.org/2000/svg" p-id="14065" width="200" height="200"><path d="M832 96a64 64 0 0 1 63.84 59.2L896 160l0.032 352.64A272 272 0 1 1 544.768 928L160 928a64 64 0 0 1-63.84-59.2L96 864V160a64 64 0 0 1 59.2-63.84L160 96h672z m-112 416a208 208 0 1 0 0 416 208 208 0 0 0 0-416z m112.032-39.936L832 160H160v704l329.216 0.032a272 272 0 0 1 342.816-391.968z" p-id="14066"></path><path d="M479.264 452.832a32 32 0 0 1 3.744 63.808l-3.744 0.192h-184a32 32 0 0 1-3.712-63.776l3.712-0.224h184zM576 273.632a32 32 0 0 1 3.744 63.808L576 337.6H295.264a32 32 0 0 1-3.712-63.776l3.712-0.224H576zM768 576l-0.032 96h90.112v64H704v-160z" p-id="14067"></path></svg>
