<svg t="1657596640212" class="icon" viewBox="0 0 1024 1024" version="1.1" xmlns="http://www.w3.org/2000/svg" p-id="13930" width="200" height="200"><path d="M912 192.064H328a8 8 0 0 0-8 8v56c0 4.352 3.584 8 8 8h584a8 8 0 0 0 8-8V200.064a8 8 0 0 0-8-8z m0 283.968H328a8 8 0 0 0-8 8v56c0 4.416 3.584 8 8 8h584a8 8 0 0 0 8-8v-56a8 8 0 0 0-8-8z m0 284.032H328a8 8 0 0 0-8 8v55.936c0 4.48 3.584 8.064 8 8.064h584a8 8 0 0 0 8-8.064v-55.936a8 8 0 0 0-8-8zM104 228.032a56 56 0 1 0 112 0 56 56 0 0 0-112 0z m0 284.032a56 56 0 1 0 112 0 56 56 0 0 0-112 0zM104 796.032a56 56 0 1 0 112 0 56 56 0 0 0-112 0z" p-id="13931"></path></svg>
