<svg t="1658287923763" class="icon" viewBox="0 0 1024 1024" version="1.1" xmlns="http://www.w3.org/2000/svg" p-id="6354" width="200" height="200"><path d="M927.84 64c27.584 0 40.256 34.496 19.328 52.544-124.8 107.584-144.096 227.84-58.88 370.848l5.344 8.768 8.576 14.272c96.8 166.08 71.84 316.8-73.856 442.368a29.632 29.632 0 0 1-15.104 6.912l-4.224 0.288H96.16c-27.584 0-40.256-34.496-19.328-52.544 124.8-107.584 144.096-227.84 58.88-370.848l-5.344-8.768-8.576-14.272C24.96 347.488 49.92 196.768 195.648 71.2a29.632 29.632 0 0 1 15.104-6.912L214.976 64h712.864z m-72.064 59.744H226.144l-3.104 2.816c-110.944 101.632-129.088 214.688-55.36 347.456l5.088 8.864 16.864 28.032c80.8 138.944 76.352 267.104-12.736 378.816l-6.368 7.744-2.432 2.784H797.76l3.232-2.816c110.944-101.632 129.088-214.688 55.36-347.456l-5.088-8.864-16.864-28.032c-80.8-138.944-76.352-267.104 12.736-378.816l6.368-7.744 2.304-2.784zM719.904 780.8a29.76 29.76 0 0 1 29.728 29.856c0 14.688-10.528 26.88-24.384 29.408l-5.344 0.48H363.52a29.76 29.76 0 0 1-29.696-29.888c0-14.656 10.496-26.848 24.352-29.376l5.344-0.48h356.416z m29.728-149.344a29.76 29.76 0 0 1 29.696 29.888c0 14.656-10.496 26.848-24.352 29.376l-5.344 0.48H393.184a29.76 29.76 0 0 1-29.696-29.856c0-14.688 10.496-26.88 24.352-29.408l5.344-0.48h356.448z m-59.424-149.312a29.76 29.76 0 0 1 29.696 29.856c0 14.656-10.496 26.88-24.32 29.376l-5.376 0.48H333.792A29.76 29.76 0 0 1 304.096 512c0-14.656 10.496-26.88 24.32-29.376l5.376-0.48h356.416zM630.816 332.8a29.76 29.76 0 0 1 29.696 29.856c0 14.688-10.496 26.88-24.352 29.408l-5.344 0.48H274.368a29.76 29.76 0 0 1-29.696-29.888c0-14.656 10.496-26.848 24.352-29.376l5.344-0.48h356.448z m29.696-149.344a29.76 29.76 0 0 1 29.696 29.888c0 14.656-10.496 26.848-24.352 29.376l-5.344 0.48H304.096a29.76 29.76 0 0 1-29.728-29.856c0-14.688 10.528-26.88 24.384-29.408l5.344-0.48H660.48z" p-id="6355"></path></svg>
