<svg t="1657593790197" class="icon" viewBox="0 0 1024 1024" version="1.1" xmlns="http://www.w3.org/2000/svg" p-id="13795" width="200" height="200"><path d="M926.72 598.08l-50.112-28.928a371.456 371.456 0 0 0 0.448-112.512l49.6-28.608c15.36-8.96 26.432-23.296 31.04-40.448a66.176 66.176 0 0 0-6.656-50.56L883.904 220.8a66.816 66.816 0 0 0-90.88-24.32l-48.96 28.16a371.776 371.776 0 0 0-98.368-56.96v-56.32c0-36.672-29.888-66.56-66.56-66.56H444.8c-36.736 0-66.56 29.888-66.56 66.56v56.768a371.904 371.904 0 0 0-97.792 56.896l-49.536-28.608a66.624 66.624 0 0 0-90.944 24.384L72.896 337.024a66.688 66.688 0 0 0 24.384 91.008l50.56 29.184a371.136 371.136 0 0 0 0.448 111.36l-51.008 29.44a66.688 66.688 0 0 0-24.32 91.008l67.072 116.288a66.816 66.816 0 0 0 90.944 24.32l51.84-29.888c28.8 22.976 61.248 41.664 95.424 55.04v59.904c0 36.736 29.888 66.56 66.624 66.56h134.208c36.736 0 66.56-29.824 66.56-66.56v-59.456a371.904 371.904 0 0 0 96.128-55.104l51.2 29.568a66.816 66.816 0 0 0 90.944-24.32l67.2-116.352c8.832-15.36 11.2-33.28 6.592-50.56a66.176 66.176 0 0 0-31.04-40.384z m-49.984 44.16l-64.128 111.104s-0.128 0.256-0.448 0.256l-0.256-0.064-68.096-39.36a31.552 31.552 0 0 0-36.992 3.968 290.56 290.56 0 0 1-108.096 62.016 31.552 31.552 0 0 0-22.144 30.08v79.168a0.512 0.512 0 0 1-0.448 0.448H447.872a0.512 0.512 0 0 1-0.512-0.448v-79.488a31.552 31.552 0 0 0-22.016-30.08 290.56 290.56 0 0 1-107.52-62.016 31.552 31.552 0 0 0-36.992-4.032l-68.8 39.68-0.192 0.128c-0.32 0-0.448-0.192-0.448-0.256L147.2 642.304a0.512 0.512 0 0 1 0.192-0.64l68.096-39.36a31.552 31.552 0 0 0 15.04-34.304 291.008 291.008 0 0 1-0.512-125.12 31.552 31.552 0 0 0-15.104-33.984l-67.52-39.04a0.512 0.512 0 0 1-0.192-0.64l64.128-111.04c0-0.064 0.128-0.256 0.448-0.256h0.192l66.816 38.592a31.552 31.552 0 0 0 37.184-4.16 290.496 290.496 0 0 1 109.312-63.744 31.552 31.552 0 0 0 22.016-30.08V122.112c0-0.256 0.256-0.512 0.512-0.512h128.256c0.256 0 0.448 0.256 0.448 0.512v76.16c0 13.76 8.96 25.984 22.144 30.08a290.432 290.432 0 0 1 109.888 63.68 31.552 31.552 0 0 0 37.184 4.096l66.112-38.144 0.256-0.064c0.32 0 0.448 0.192 0.448 0.256L876.8 369.216v0.32c0 0.256-0.128 0.256-0.192 0.32l-66.688 38.528a31.552 31.552 0 0 0-15.04 34.048 290.944 290.944 0 0 1-0.512 126.08 31.552 31.552 0 0 0 14.976 34.304l67.264 38.784c0.128 0.064 0.192 0.128 0.256 0.32l-0.064 0.384zM512.512 344.256a167.488 167.488 0 0 0-167.296 167.296 167.488 167.488 0 0 0 167.296 167.232 167.488 167.488 0 0 0 167.232-167.232 167.488 167.488 0 0 0-167.232-167.296z m0 268.48c-55.808 0-101.184-45.44-101.184-101.184 0-55.808 45.376-101.184 101.12-101.184 55.872 0 101.248 45.376 101.248 101.12 0 55.872-45.44 101.248-101.184 101.248z" p-id="13796"></path></svg>
