<svg t="1657090089875" class="icon" viewBox="0 0 1024 1024" version="1.1" xmlns="http://www.w3.org/2000/svg" p-id="10386" width="128" height="128"><path d="M263.68 889.856c-4.096 2.048-7.68 3.584-12.288 4.608-49.152 12.288-68.096-79.36-66.048-112.128 2.048-35.328 15.872-69.12 34.816-99.328 10.752-16.384 23.04-32.256 39.424-43.52 18.432-12.8 40.448-18.944 62.464-24.576 60.928-15.36 126.464-27.648 171.008-72.192 20.48-20.48 34.816-47.104 56.832-66.56 45.056-40.96 113.152-44.544 173.056-33.28 55.808 10.752 112.128 34.304 147.968 78.336s46.08 112.128 13.312 158.72c-20.48 28.16-53.76 45.056-88.064 51.712-34.304 6.656-69.632 3.584-103.936-1.536-23.552-3.584-49.152-7.68-70.656 3.072-10.752 5.632-19.968 14.336-28.672 22.528-57.856 52.736-131.584 87.04-208.384 98.304-32.768 4.608-67.584 5.632-96.768 21.504-8.704 5.12-15.872 10.24-24.064 14.336z" fill="#FFDB8A" p-id="10387"></path><path d="M621.056 733.696c21.504-10.752 47.104-6.656 70.656-3.072 34.304 5.12 69.632 8.192 103.936 1.536 34.304-6.656 67.584-23.552 88.064-51.712 33.28-46.592 23.04-114.176-13.312-158.72-9.728-11.776-20.48-22.016-32.256-30.72-78.848 26.624-177.664 79.872-291.84 180.224-60.928 53.76-235.008 116.736-355.84 156.16 8.704 36.352 28.16 75.264 60.928 67.072 4.096-1.024 8.192-2.56 12.288-4.608 8.192-4.096 15.36-9.216 23.04-13.824 29.184-15.872 64-16.896 96.768-21.504 77.312-11.264 151.04-46.08 208.384-98.304 9.216-8.192 18.432-16.896 29.184-22.528z" fill="#EAA34E" p-id="10388"></path><path d="M216.446103 777.246401a8.704 31.232 14.177 1 0 15.298571-60.56158 8.704 31.232 14.177 1 0-15.298571 60.56158Z" fill="#FFFFFF" p-id="10389"></path><path d="M239.0114 701.268929a3.072 11.776 47.245 1 0 17.293368-15.988625 3.072 11.776 47.245 1 0-17.293368 15.988625Z" fill="#FFFFFF" p-id="10390"></path><path d="M185.856 173.056c-1.024 1.024-2.56 2.048-3.584 3.072-25.088 23.552-42.496 54.784-52.736 87.552-35.328 119.296 33.28 229.376 124.416 301.568 23.552 18.432 49.664 35.328 65.024 60.928 14.336 23.04 18.432 51.2 26.112 77.312 11.776 38.4 32.768 73.216 58.368 104.448 23.552 29.696 52.224 56.32 86.528 72.192 51.2 23.04 111.104 17.92 164.864 1.536 38.4-11.776 78.336-29.696 117.248-18.944 4.096 1.024 8.704 2.56 12.8 2.048 9.216-1.024 15.36-10.752 15.872-19.968 0.512-9.216-2.56-17.92-5.12-27.136-14.848-52.736-1.024-109.056-7.168-163.328-8.704-77.824-59.392-146.432-123.392-191.488-19.968-13.824-41.472-26.112-59.392-42.496-70.144-64-72.704-179.2-143.36-242.688-27.648-25.088-64-39.424-100.864-46.08-61.952-10.24-129.024 1.024-175.616 41.472z" fill="#FFDF92" p-id="10391"></path><path d="M654.336 881.664c38.4-11.776 78.336-29.696 117.248-18.944 3.072 1.024 6.144 2.048 9.216 2.048-55.296-74.752-135.68-157.184-247.296-211.968-198.144-97.28-321.024-297.472-385.536-433.152-7.68 13.824-14.336 28.672-18.432 44.032-35.328 119.296 33.28 229.376 124.416 301.568 23.552 18.432 49.664 35.328 65.024 60.928 14.336 23.04 18.432 51.2 26.112 77.312 11.776 38.4 32.768 73.216 58.368 104.448 23.552 29.696 52.224 56.32 86.528 72.192 51.2 23.04 111.104 18.432 164.352 1.536z" fill="#FFB754" p-id="10392"></path><path d="M493.056 336.384c-4.608 0-8.704-3.584-9.728-8.192-7.168-47.616-28.672-86.528-65.024-115.712-27.136-21.504-51.712-29.696-51.712-29.696-5.12-1.536-8.192-7.168-6.656-12.288 1.536-5.12 7.168-8.192 12.288-6.656 1.024 0.512 28.672 8.704 58.368 32.768 27.648 22.016 62.464 62.464 71.68 128 1.024 5.12-3.072 10.24-8.192 10.752 0 1.024-0.512 1.024-1.024 1.024zM533.504 855.552c-1.024 0-2.048 0-3.072-0.512-1.024-0.512-28.672-8.704-58.368-32.768-27.648-22.016-62.464-62.464-71.68-128-1.024-5.12 3.072-10.24 8.192-10.752 5.12-1.024 10.24 3.072 10.752 8.192 7.168 47.616 28.672 86.528 65.024 115.712 27.136 21.504 51.712 29.696 51.712 29.696 5.12 1.536 8.192 7.168 6.656 12.288-1.024 3.584-5.12 6.144-9.216 6.144z" fill="#FFFFFF" p-id="10393"></path><path d="M410.112 662.528m-9.728 0a9.728 9.728 0 1 0 19.456 0 9.728 9.728 0 1 0-19.456 0Z" fill="#FFFFFF" p-id="10394"></path><path d="M497.152 360.448m-9.728 0a9.728 9.728 0 1 0 19.456 0 9.728 9.728 0 1 0-19.456 0Z" fill="#FFFFFF" p-id="10395"></path><path d="M309.852671 353.73985a17.408 10.752 64.396 1 0 19.392358-9.292926 17.408 10.752 64.396 1 0-19.392358 9.292926Z" fill="#49330D" p-id="10396"></path><path d="M323.276295 263.881317a17.408 10.752 69.439 1 0 20.13417-7.5523 17.408 10.752 69.439 1 0-20.13417 7.5523Z" fill="#49330D" p-id="10397"></path><path d="M264.126363 290.446048a17.408 10.752 64.396 1 0 19.392358-9.292926 17.408 10.752 64.396 1 0-19.392358 9.292926Z" fill="#49330D" p-id="10398"></path><path d="M312.400399 356.870483a17.408 10.752 64.396 1 0 19.392357-9.292926 17.408 10.752 64.396 1 0-19.392357 9.292926Z" fill="#9B611C" p-id="10399"></path><path d="M325.822545 267.000387a17.408 10.752 69.439 1 0 20.134169-7.5523 17.408 10.752 69.439 1 0-20.134169 7.5523Z" fill="#9B611C" p-id="10400"></path><path d="M267.354861 293.817646a17.408 10.752 64.396 1 0 19.392358-9.292925 17.408 10.752 64.396 1 0-19.392358 9.292925Z" fill="#9B611C" p-id="10401"></path></svg>
